<svg width="1200" height="350" viewBox="0 0 1200 350" fill="none" xmlns="http://www.w3.org/2000/svg">
<path d="M0 30C0 13.4315 13.4315 0 30 0H1170C1186.57 0 1200 13.4315 1200 30V320C1200 336.569 1186.57 350 1170 350H30C13.4314 350 0 336.569 0 320V30Z" fill="url(#paint0_linear_2403_74)"/>
<path d="M716.567 197.322V170.553H749.991V168.987H716.567V144.565H752.104V143H715.002V198.888H752.417V197.322H716.567ZM782.553 158.655L768.698 176.893L755.156 158.655H753.121L767.759 178.067L751.712 198.887H753.591L768.697 179.24L783.883 198.887H785.839L769.715 178.066L784.431 158.654L782.553 158.655ZM790.537 212.664V187.617H790.693C791.633 191.269 793.485 194.205 796.251 196.423C799.016 198.64 802.538 199.749 806.817 199.749C809.583 199.749 812.036 199.188 814.175 198.066C816.315 196.945 818.102 195.418 819.537 193.487C820.972 191.557 822.068 189.313 822.825 186.756C823.581 184.199 823.96 181.511 823.96 178.694C823.96 175.667 823.568 172.875 822.785 170.318C822.003 167.761 820.868 165.543 819.381 163.665C817.893 161.786 816.093 160.325 813.979 159.282C811.866 158.238 809.479 157.716 806.817 157.716C804.782 157.716 802.891 158.016 801.143 158.616C799.395 159.217 797.842 160.064 796.486 161.16C795.121 162.265 793.933 163.571 792.963 165.035C791.972 166.522 791.215 168.153 790.693 169.927H790.537V158.655H788.971V212.664H790.537ZM806.817 198.261C801.913 198.261 797.973 196.579 794.998 193.213C792.024 189.847 790.537 185.007 790.537 178.693C790.537 176.084 790.902 173.605 791.633 171.257C792.363 168.909 793.42 166.847 794.802 165.073C796.185 163.299 797.895 161.89 799.929 160.847C801.964 159.803 804.261 159.281 806.817 159.281C809.427 159.281 811.71 159.803 813.667 160.847C815.623 161.89 817.241 163.312 818.52 165.112C819.798 166.913 820.763 168.974 821.416 171.296C822.068 173.618 822.394 176.084 822.394 178.693C822.394 181.041 822.094 183.377 821.494 185.699C820.894 188.021 819.968 190.108 818.715 191.961C817.463 193.813 815.859 195.326 813.901 196.501C811.944 197.675 809.583 198.261 806.817 198.261ZM832.57 198.888V176.11C832.57 173.918 832.883 171.778 833.509 169.692C834.135 167.604 835.101 165.765 836.405 164.173C837.71 162.582 839.366 161.329 841.376 160.416C843.385 159.503 845.772 159.124 848.538 159.281V157.715C846.137 157.664 844.037 157.924 842.237 158.498C840.436 159.072 838.884 159.855 837.579 160.847C836.275 161.838 835.231 162.999 834.449 164.33C833.667 165.659 833.086 167.096 832.726 168.596H832.57V158.655H831.005V198.888L832.57 198.888ZM850.495 179.084H884.152C884.257 176.319 883.983 173.658 883.331 171.101C882.679 168.543 881.635 166.273 880.2 164.291C878.765 162.308 876.912 160.716 874.642 159.516C872.372 158.315 869.672 157.715 866.541 157.715C864.297 157.715 862.105 158.185 859.966 159.125C857.826 160.064 855.948 161.433 854.33 163.234C852.713 165.034 851.408 167.239 850.417 169.849C849.425 172.457 848.929 175.432 848.929 178.771C848.929 181.746 849.268 184.525 849.947 187.108C850.625 189.69 851.669 191.935 853.078 193.839C854.487 195.744 856.3 197.218 858.518 198.261C860.735 199.305 863.41 199.801 866.541 199.749C871.133 199.749 874.995 198.457 878.125 195.874C881.257 193.291 883.109 189.651 883.683 184.955H882.118C881.439 189.391 879.704 192.717 876.912 194.935C874.12 197.153 870.611 198.261 866.384 198.261C863.514 198.261 861.088 197.766 859.105 196.775C857.122 195.783 855.504 194.426 854.252 192.704C853 190.982 852.073 188.96 851.473 186.638C850.873 184.316 850.547 181.798 850.495 179.084ZM882.587 177.519H850.495C850.651 174.701 851.173 172.17 852.06 169.927C852.947 167.682 854.108 165.765 855.544 164.173C856.978 162.582 858.648 161.369 860.553 160.533C862.458 159.699 864.506 159.281 866.697 159.281C869.307 159.281 871.602 159.764 873.586 160.729C875.568 161.695 877.225 163.012 878.556 164.682C879.887 166.352 880.891 168.296 881.569 170.513C882.248 172.731 882.587 175.067 882.587 177.519ZM916.637 170.553H918.202C918.202 166.065 916.897 162.803 914.289 160.768C911.679 158.733 908.13 157.715 903.643 157.715C901.138 157.715 899.025 158.029 897.302 158.655C895.581 159.281 894.172 160.09 893.076 161.081C891.98 162.072 891.197 163.168 890.728 164.369C890.258 165.569 890.023 166.717 890.023 167.813C890.023 170.004 890.414 171.753 891.198 173.057C891.98 174.362 893.206 175.379 894.876 176.11C896.024 176.631 897.328 177.101 898.79 177.519C900.251 177.937 901.947 178.38 903.878 178.849C905.6 179.268 907.296 179.685 908.966 180.102C910.635 180.52 912.11 181.08 913.388 181.785C914.667 182.489 915.71 183.39 916.519 184.486C917.328 185.581 917.732 187.016 917.732 188.79C917.732 190.513 917.328 191.974 916.519 193.174C915.717 194.368 914.661 195.37 913.427 196.109C912.175 196.866 910.779 197.413 909.24 197.753C907.7 198.092 906.2 198.261 904.739 198.261C899.99 198.261 896.35 197.205 893.819 195.092C891.289 192.978 890.023 189.651 890.023 185.111H888.458C888.458 190.173 889.828 193.878 892.567 196.227C895.307 198.575 899.364 199.749 904.739 199.749C906.461 199.749 908.196 199.553 909.944 199.162C911.692 198.77 913.258 198.131 914.64 197.244C916.011 196.369 917.163 195.191 918.006 193.8C918.867 192.391 919.298 190.669 919.298 188.634C919.298 186.703 918.919 185.138 918.163 183.937C917.406 182.737 916.415 181.746 915.188 180.963C913.962 180.18 912.579 179.567 911.04 179.124C909.492 178.678 907.939 178.247 906.382 177.832C904.466 177.329 902.549 176.834 900.629 176.345C898.986 175.927 897.459 175.432 896.05 174.858C894.694 174.283 893.611 173.462 892.802 172.392C891.993 171.322 891.589 169.796 891.589 167.813C891.589 167.448 891.693 166.795 891.902 165.856C892.11 164.917 892.606 163.964 893.389 162.999C894.172 162.034 895.372 161.173 896.99 160.416C898.607 159.66 900.825 159.281 903.643 159.281C905.574 159.281 907.335 159.49 908.926 159.907C910.518 160.325 911.888 160.99 913.036 161.903C914.184 162.817 915.071 163.977 915.697 165.386C916.323 166.796 916.637 168.518 916.637 170.553ZM952.877 170.553H954.443C954.443 166.065 953.139 162.803 950.529 160.768C947.92 158.733 944.372 157.715 939.884 157.715C937.379 157.715 935.266 158.029 933.544 158.655C931.821 159.281 930.413 160.09 929.317 161.081C928.221 162.072 927.438 163.168 926.968 164.369C926.499 165.569 926.264 166.717 926.264 167.813C926.264 170.004 926.656 171.753 927.439 173.057C928.221 174.362 929.448 175.379 931.117 176.11C932.265 176.631 933.57 177.101 935.031 177.519C936.492 177.937 938.188 178.38 940.119 178.849C941.841 179.268 943.537 179.685 945.206 180.102C946.877 180.52 948.35 181.08 949.629 181.785C950.907 182.489 951.951 183.39 952.76 184.486C953.569 185.581 953.973 187.016 953.973 188.79C953.973 190.513 953.569 191.974 952.76 193.174C951.958 194.368 950.902 195.37 949.669 196.109C948.416 196.866 947.02 197.413 945.48 197.753C943.941 198.092 942.441 198.261 940.98 198.261C936.231 198.261 932.591 197.205 930.061 195.092C927.529 192.978 926.264 189.651 926.264 185.111H924.699C924.699 190.173 926.068 193.878 928.808 196.227C931.548 198.575 935.605 199.749 940.98 199.749C942.702 199.749 944.437 199.553 946.185 199.162C947.933 198.77 949.499 198.131 950.882 197.244C952.253 196.369 953.404 195.191 954.247 193.8C955.108 192.391 955.539 190.669 955.539 188.634C955.539 186.703 955.161 185.138 954.404 183.937C953.647 182.737 952.656 181.746 951.429 180.963C950.203 180.18 948.82 179.567 947.281 179.124C945.733 178.678 944.18 178.247 942.624 177.832C940.708 177.329 938.79 176.834 936.87 176.345C935.227 175.927 933.7 175.432 932.291 174.858C930.934 174.283 929.852 173.462 929.043 172.392C928.234 171.322 927.83 169.796 927.83 167.813C927.83 167.448 927.934 166.795 928.143 165.856C928.351 164.917 928.848 163.964 929.63 162.999C930.413 162.034 931.613 161.173 933.23 160.416C934.848 159.66 937.066 159.281 939.884 159.281C941.815 159.281 943.576 159.49 945.167 159.907C946.759 160.325 948.129 160.99 949.277 161.903C950.425 162.817 951.312 163.977 951.938 165.386C952.564 166.796 952.877 168.518 952.877 170.553Z" fill="#FFFFFA"/>
<path d="M157.176 59.2266C156.438 58.9805 155.699 58.748 154.961 58.5293C155.084 58.0234 155.193 57.5176 155.303 57.0117C156.984 48.8633 155.877 42.3145 152.145 40.1543C148.549 38.0898 142.684 40.2363 136.75 45.4043C136.162 45.9102 135.588 46.4434 135.041 46.9766C134.672 46.6211 134.289 46.2656 133.906 45.9238C127.686 40.4004 121.451 38.0762 117.719 40.25C114.137 42.3281 113.07 48.4941 114.574 56.2051C114.725 56.9707 114.889 57.7227 115.08 58.4883C114.205 58.7344 113.344 59.0078 112.537 59.2949C105.236 61.8242 100 65.8164 100 69.9453C100 74.2109 105.578 78.4902 113.166 81.0879C113.781 81.293 114.396 81.498 115.025 81.6758C114.82 82.4961 114.643 83.3027 114.479 84.1367C113.043 91.7246 114.164 97.7402 117.746 99.8047C121.438 101.938 127.645 99.75 133.688 94.459C134.166 94.0352 134.645 93.5977 135.123 93.1328C135.725 93.7207 136.354 94.2812 136.982 94.8281C142.834 99.8594 148.617 101.896 152.186 99.832C155.877 97.6992 157.08 91.2324 155.521 83.3574C155.398 82.7559 155.262 82.1406 155.111 81.5117C155.549 81.3887 155.973 81.252 156.396 81.1152C164.285 78.5039 170 74.2793 170 69.9453C170 65.8027 164.613 61.7832 157.176 59.2266ZM138.678 47.6191C143.764 43.1895 148.508 41.4531 150.668 42.6973C152.979 44.0234 153.867 49.3828 152.418 56.4238C152.322 56.8887 152.227 57.3398 152.104 57.791C149.068 57.1074 145.992 56.6152 142.902 56.3418C141.125 53.7988 139.184 51.3652 137.078 49.082C137.611 48.5762 138.131 48.0977 138.678 47.6191ZM122.859 77.041C123.557 78.2305 124.268 79.4199 125.02 80.582C122.887 80.3496 120.768 80.0078 118.676 79.5566C119.277 77.5879 120.029 75.5508 120.904 73.4727C121.533 74.6758 122.176 75.8652 122.859 77.041ZM118.717 60.5938C120.686 60.1562 122.777 59.8008 124.951 59.5273C124.227 60.6621 123.516 61.8242 122.846 63C122.176 64.1621 121.52 65.3516 120.904 66.5547C120.043 64.5176 119.318 62.5215 118.717 60.5938ZM122.463 70.0137C123.365 68.127 124.35 66.2812 125.389 64.4629C126.428 62.6445 127.549 60.8809 128.725 59.1445C130.775 58.9941 132.867 58.9121 135 58.9121C137.133 58.9121 139.238 58.9941 141.275 59.1445C142.438 60.8672 143.545 62.6309 144.598 64.4355C145.65 66.2402 146.635 68.0859 147.564 69.959C146.648 71.8457 145.664 73.7051 144.611 75.5371C143.572 77.3555 142.465 79.1191 141.303 80.8691C139.266 81.0195 137.146 81.0879 135 81.0879C132.854 81.0879 130.775 81.0195 128.766 80.8965C127.576 79.1602 126.455 77.3828 125.402 75.5645C124.35 73.7461 123.379 71.9004 122.463 70.0137ZM147.154 77.0137C147.852 75.8105 148.508 74.5938 149.15 73.3633C150.025 75.3457 150.791 77.3555 151.461 79.4199C149.342 79.8984 147.195 80.2676 145.035 80.5137C145.773 79.3652 146.471 78.1895 147.154 77.0137ZM149.123 66.5547C148.48 65.3516 147.824 64.1484 147.141 62.9727C146.471 61.8105 145.773 60.6621 145.049 59.5273C147.25 59.8008 149.355 60.1699 151.324 60.6211C150.695 62.6445 149.957 64.6133 149.123 66.5547ZM135.027 51.1738C136.463 52.7324 137.816 54.373 139.074 56.0684C136.367 55.9453 133.646 55.9453 130.939 56.0684C132.279 54.3047 133.66 52.6641 135.027 51.1738ZM119.168 42.793C121.465 41.4531 126.564 43.3672 131.938 48.125C132.279 48.4258 132.621 48.7539 132.977 49.082C130.857 51.3652 128.902 53.7988 127.111 56.3418C124.021 56.6152 120.959 57.0938 117.924 57.7637C117.746 57.0664 117.596 56.3555 117.445 55.6445C116.16 49.0273 117.008 44.0371 119.168 42.793ZM115.818 78.832C115.244 78.668 114.684 78.4902 114.123 78.2988C111.211 77.3828 107.902 75.9336 105.51 74.0332C104.129 73.0762 103.199 71.5996 102.939 69.9453C102.939 67.4434 107.26 64.2441 113.494 62.0703C114.273 61.7969 115.066 61.5508 115.859 61.3184C116.789 64.2852 117.91 67.1973 119.209 70.0137C117.896 72.8711 116.762 75.8242 115.818 78.832ZM131.76 92.2305C129.504 94.2949 126.893 95.9355 124.049 97.0566C122.531 97.7812 120.781 97.8496 119.223 97.2344C117.049 95.9766 116.146 91.1504 117.377 84.6562C117.527 83.8906 117.691 83.125 117.883 82.373C120.945 83.0293 124.035 83.4805 127.166 83.7129C128.971 86.2695 130.953 88.7168 133.072 91.0137C132.635 91.4375 132.197 91.8477 131.76 92.2305ZM135.109 88.9082C133.715 87.4043 132.32 85.7363 130.967 83.9453C132.279 84 133.633 84.0273 135 84.0273C136.408 84.0273 137.789 84 139.156 83.9316C137.898 85.668 136.545 87.3223 135.109 88.9082ZM152.979 93.0098C152.855 94.6777 152.035 96.2363 150.723 97.2891C148.549 98.5469 143.914 96.9062 138.91 92.6133C138.336 92.1211 137.762 91.5879 137.174 91.041C139.266 88.7305 141.193 86.2832 142.943 83.7129C146.074 83.4531 149.191 82.9746 152.268 82.2773C152.404 82.8379 152.527 83.3984 152.637 83.9453C153.307 86.8984 153.416 89.9746 152.979 93.0098ZM155.467 78.3125C155.084 78.4355 154.701 78.5586 154.305 78.668C153.348 75.6875 152.172 72.7754 150.818 69.9453C152.131 67.1562 153.238 64.2852 154.168 61.3457C154.879 61.5508 155.562 61.7695 156.219 61.9883C162.59 64.1758 167.061 67.4297 167.061 69.918C167.061 72.5977 162.289 76.0566 155.467 78.3125ZM135 76.2617C138.459 76.2617 141.262 73.459 141.262 70C141.262 66.541 138.459 63.7383 135 63.7383C131.541 63.7383 128.738 66.541 128.738 70C128.738 73.459 131.541 76.2617 135 76.2617Z" fill="#FFFFFA"/>
<path d="M157.176 59.2266C156.438 58.9805 155.699 58.748 154.961 58.5293C155.084 58.0234 155.193 57.5176 155.303 57.0117C156.984 48.8633 155.877 42.3145 152.145 40.1543C148.549 38.0898 142.684 40.2363 136.75 45.4043C136.162 45.9102 135.588 46.4434 135.041 46.9766C134.672 46.6211 134.289 46.2656 133.906 45.9238C127.686 40.4004 121.451 38.0762 117.719 40.25C114.137 42.3281 113.07 48.4941 114.574 56.2051C114.725 56.9707 114.889 57.7227 115.08 58.4883C114.205 58.7344 113.344 59.0078 112.537 59.2949C105.236 61.8242 100 65.8164 100 69.9453C100 74.2109 105.578 78.4902 113.166 81.0879C113.781 81.293 114.396 81.498 115.025 81.6758C114.82 82.4961 114.643 83.3027 114.479 84.1367C113.043 91.7246 114.164 97.7402 117.746 99.8047C121.438 101.938 127.645 99.75 133.688 94.459C134.166 94.0352 134.645 93.5977 135.123 93.1328C135.725 93.7207 136.354 94.2812 136.982 94.8281C142.834 99.8594 148.617 101.896 152.186 99.832C155.877 97.6992 157.08 91.2324 155.521 83.3574C155.398 82.7559 155.262 82.1406 155.111 81.5117C155.549 81.3887 155.973 81.252 156.396 81.1152C164.285 78.5039 170 74.2793 170 69.9453C170 65.8027 164.613 61.7832 157.176 59.2266ZM138.678 47.6191C143.764 43.1895 148.508 41.4531 150.668 42.6973C152.979 44.0234 153.867 49.3828 152.418 56.4238C152.322 56.8887 152.227 57.3398 152.104 57.791C149.068 57.1074 145.992 56.6152 142.902 56.3418C141.125 53.7988 139.184 51.3652 137.078 49.082C137.611 48.5762 138.131 48.0977 138.678 47.6191ZM122.859 77.041C123.557 78.2305 124.268 79.4199 125.02 80.582C122.887 80.3496 120.768 80.0078 118.676 79.5566C119.277 77.5879 120.029 75.5508 120.904 73.4727C121.533 74.6758 122.176 75.8652 122.859 77.041ZM118.717 60.5938C120.686 60.1562 122.777 59.8008 124.951 59.5273C124.227 60.6621 123.516 61.8242 122.846 63C122.176 64.1621 121.52 65.3516 120.904 66.5547C120.043 64.5176 119.318 62.5215 118.717 60.5938ZM122.463 70.0137C123.365 68.127 124.35 66.2812 125.389 64.4629C126.428 62.6445 127.549 60.8809 128.725 59.1445C130.775 58.9941 132.867 58.9121 135 58.9121C137.133 58.9121 139.238 58.9941 141.275 59.1445C142.438 60.8672 143.545 62.6309 144.598 64.4355C145.65 66.2402 146.635 68.0859 147.564 69.959C146.648 71.8457 145.664 73.7051 144.611 75.5371C143.572 77.3555 142.465 79.1191 141.303 80.8691C139.266 81.0195 137.146 81.0879 135 81.0879C132.854 81.0879 130.775 81.0195 128.766 80.8965C127.576 79.1602 126.455 77.3828 125.402 75.5645C124.35 73.7461 123.379 71.9004 122.463 70.0137ZM147.154 77.0137C147.852 75.8105 148.508 74.5938 149.15 73.3633C150.025 75.3457 150.791 77.3555 151.461 79.4199C149.342 79.8984 147.195 80.2676 145.035 80.5137C145.773 79.3652 146.471 78.1895 147.154 77.0137ZM149.123 66.5547C148.48 65.3516 147.824 64.1484 147.141 62.9727C146.471 61.8105 145.773 60.6621 145.049 59.5273C147.25 59.8008 149.355 60.1699 151.324 60.6211C150.695 62.6445 149.957 64.6133 149.123 66.5547ZM135.027 51.1738C136.463 52.7324 137.816 54.373 139.074 56.0684C136.367 55.9453 133.646 55.9453 130.939 56.0684C132.279 54.3047 133.66 52.6641 135.027 51.1738ZM119.168 42.793C121.465 41.4531 126.564 43.3672 131.938 48.125C132.279 48.4258 132.621 48.7539 132.977 49.082C130.857 51.3652 128.902 53.7988 127.111 56.3418C124.021 56.6152 120.959 57.0938 117.924 57.7637C117.746 57.0664 117.596 56.3555 117.445 55.6445C116.16 49.0273 117.008 44.0371 119.168 42.793ZM115.818 78.832C115.244 78.668 114.684 78.4902 114.123 78.2988C111.211 77.3828 107.902 75.9336 105.51 74.0332C104.129 73.0762 103.199 71.5996 102.939 69.9453C102.939 67.4434 107.26 64.2441 113.494 62.0703C114.273 61.7969 115.066 61.5508 115.859 61.3184C116.789 64.2852 117.91 67.1973 119.209 70.0137C117.896 72.8711 116.762 75.8242 115.818 78.832ZM131.76 92.2305C129.504 94.2949 126.893 95.9355 124.049 97.0566C122.531 97.7812 120.781 97.8496 119.223 97.2344C117.049 95.9766 116.146 91.1504 117.377 84.6562C117.527 83.8906 117.691 83.125 117.883 82.373C120.945 83.0293 124.035 83.4805 127.166 83.7129C128.971 86.2695 130.953 88.7168 133.072 91.0137C132.635 91.4375 132.197 91.8477 131.76 92.2305ZM135.109 88.9082C133.715 87.4043 132.32 85.7363 130.967 83.9453C132.279 84 133.633 84.0273 135 84.0273C136.408 84.0273 137.789 84 139.156 83.9316C137.898 85.668 136.545 87.3223 135.109 88.9082ZM152.979 93.0098C152.855 94.6777 152.035 96.2363 150.723 97.2891C148.549 98.5469 143.914 96.9062 138.91 92.6133C138.336 92.1211 137.762 91.5879 137.174 91.041C139.266 88.7305 141.193 86.2832 142.943 83.7129C146.074 83.4531 149.191 82.9746 152.268 82.2773C152.404 82.8379 152.527 83.3984 152.637 83.9453C153.307 86.8984 153.416 89.9746 152.979 93.0098ZM155.467 78.3125C155.084 78.4355 154.701 78.5586 154.305 78.668C153.348 75.6875 152.172 72.7754 150.818 69.9453C152.131 67.1562 153.238 64.2852 154.168 61.3457C154.879 61.5508 155.562 61.7695 156.219 61.9883C162.59 64.1758 167.061 67.4297 167.061 69.918C167.061 72.5977 162.289 76.0566 155.467 78.3125ZM135 76.2617C138.459 76.2617 141.262 73.459 141.262 70C141.262 66.541 138.459 63.7383 135 63.7383C131.541 63.7383 128.738 66.541 128.738 70C128.738 73.459 131.541 76.2617 135 76.2617Z" fill="#FFFFFA"/>
<path d="M387 35V105H457V35H387ZM427.256 65.383H417.301V96.2203H411.819V65.383H401.884V60.2837H427.256L427.256 65.383ZM447.656 93.0766C444.314 97.4311 434.728 98.096 429.155 94.4731V87.6567C432.189 90.9701 435.328 91.4437 437.774 91.6683C445.415 92.304 445.636 85.9391 442.543 83.3146C437.989 79.6389 428.919 77.5938 429.203 69.6512C429.137 63.9613 433.554 60.1416 440.128 59.7867C442.619 59.6522 446.17 59.8072 448.403 61.2493V67.6569C443.162 62.848 432.253 64.1378 434.898 71.2759C437.292 75.683 445.526 76.1164 448.99 83.0956C450.461 87.0219 449.642 90.4887 447.656 93.0766Z" fill="#FFFFFA"/>
<path d="M390.484 213C390.109 213 389.734 212.893 389.395 212.714L385.966 210.678C385.448 210.393 385.698 210.286 385.877 210.232C386.556 210 386.698 209.946 387.431 209.518C387.502 209.482 387.609 209.5 387.681 209.536L390.324 211.107C390.413 211.161 390.556 211.161 390.645 211.107L400.967 205.143C401.056 205.089 401.128 204.982 401.128 204.857V192.946C401.128 192.821 401.074 192.714 400.967 192.66L390.645 186.713C390.556 186.66 390.431 186.66 390.324 186.713L380.002 192.66C379.895 192.714 379.841 192.839 379.841 192.946V204.857C379.841 204.964 379.912 205.071 380.002 205.125L382.823 206.75C384.359 207.518 385.305 206.607 385.305 205.714V193.946C385.305 193.785 385.43 193.642 385.609 193.642H386.913C387.073 193.642 387.216 193.767 387.216 193.946V205.714C387.216 207.768 386.109 208.928 384.163 208.928C383.573 208.928 383.091 208.928 381.787 208.286L379.073 206.732C378.412 206.339 377.984 205.625 377.984 204.857V192.946C377.984 192.178 378.394 191.446 379.073 191.071L389.395 185.106C390.056 184.731 390.913 184.731 391.556 185.106L401.878 191.071C402.538 191.463 402.967 192.178 402.967 192.946V204.857C402.967 205.625 402.556 206.357 401.878 206.732L391.556 212.696C391.252 212.893 390.877 213 390.484 213ZM398.824 201.25C398.824 199.017 397.324 198.428 394.145 197.999C390.931 197.571 390.609 197.357 390.609 196.607C390.609 195.982 390.877 195.16 393.252 195.16C395.377 195.16 396.163 195.624 396.484 197.053C396.52 197.196 396.627 197.285 396.77 197.285H398.11C398.199 197.285 398.27 197.249 398.324 197.196C398.377 197.124 398.413 197.053 398.395 196.964C398.181 194.499 396.556 193.356 393.252 193.356C390.306 193.356 388.556 194.606 388.556 196.678C388.556 198.946 390.306 199.553 393.127 199.839C396.502 200.178 396.77 200.66 396.77 201.321C396.77 202.482 395.842 202.964 393.663 202.964C390.931 202.964 390.324 202.285 390.127 200.928C390.109 200.785 389.984 200.678 389.823 200.678H388.484C388.323 200.678 388.181 200.803 388.181 200.982C388.181 202.714 389.127 204.785 393.645 204.785C396.949 204.785 398.824 203.5 398.824 201.25ZM408.556 192.303C408.556 193.392 407.663 194.285 406.574 194.285C405.485 194.285 404.592 193.392 404.592 192.303C404.592 191.178 405.521 190.321 406.574 190.321C407.646 190.303 408.556 191.178 408.556 192.303ZM408.235 192.303C408.235 191.374 407.485 190.642 406.556 190.642C405.645 190.642 404.895 191.374 404.895 192.303C404.895 193.231 405.645 193.981 406.556 193.981C407.485 193.964 408.235 193.214 408.235 192.303ZM407.431 193.41H406.967C406.949 193.303 406.878 192.731 406.878 192.714C406.842 192.589 406.806 192.517 406.646 192.517H406.253V193.41H405.824V191.178H406.592C406.86 191.178 407.378 191.178 407.378 191.767C407.378 192.178 407.11 192.267 406.949 192.321C407.253 192.339 407.271 192.535 407.324 192.821C407.342 192.999 407.378 193.303 407.431 193.41ZM406.931 191.839C406.931 191.535 406.717 191.535 406.61 191.535H406.253V192.16H406.592C406.878 192.16 406.931 191.964 406.931 191.839ZM358.519 166.391C358.519 165.909 358.269 165.48 357.858 165.248L346.911 158.944C346.733 158.837 346.518 158.784 346.304 158.766H346.197C345.983 158.766 345.786 158.837 345.59 158.944L334.661 165.248C334.25 165.48 334 165.927 334 166.391L334.018 183.356C334.018 183.588 334.143 183.802 334.339 183.927C334.536 184.052 334.786 184.052 335 183.927L341.5 180.195C341.911 179.945 342.161 179.517 342.161 179.052V171.123C342.161 170.659 342.411 170.213 342.822 169.981L345.59 168.391C345.804 168.266 346.018 168.213 346.25 168.213C346.483 168.213 346.715 168.266 346.911 168.391L349.679 169.981C350.09 170.213 350.34 170.659 350.34 171.123V179.052C350.34 179.517 350.59 179.963 351.001 180.195L357.501 183.927C357.697 184.052 357.965 184.052 358.162 183.927C358.358 183.82 358.483 183.588 358.483 183.356L358.519 166.391ZM418.378 147.873V179.374C418.378 179.838 418.128 180.285 417.717 180.517L406.771 186.838C406.36 187.07 405.86 187.07 405.449 186.838L394.502 180.517C394.091 180.285 393.841 179.838 393.841 179.374V166.73C393.841 166.266 394.091 165.82 394.502 165.588L405.449 159.266C405.86 159.034 406.36 159.034 406.771 159.266L409.503 160.837C409.806 161.016 410.199 160.784 410.199 160.444V143.658C410.199 143.158 410.735 142.837 411.181 143.087L417.7 146.73C418.11 146.944 418.378 147.39 418.378 147.873ZM410.164 170.891C410.164 170.766 410.092 170.659 410.003 170.606L406.253 168.427C406.146 168.373 406.021 168.373 405.913 168.427L402.163 170.606C402.056 170.659 402.003 170.766 402.003 170.891V175.231C402.003 175.356 402.074 175.463 402.163 175.516L405.913 177.677C406.021 177.731 406.146 177.731 406.235 177.677L409.985 175.516C410.092 175.463 410.146 175.356 410.146 175.231V170.891H410.164ZM447.629 170.766C448.04 170.534 448.29 170.088 448.29 169.623V166.57C448.29 166.105 448.04 165.659 447.629 165.427L436.754 159.105C436.343 158.873 435.843 158.873 435.432 159.105L424.486 165.427C424.075 165.659 423.825 166.105 423.825 166.57V179.213C423.825 179.695 424.075 180.124 424.486 180.356L435.361 186.553C435.754 186.785 436.254 186.785 436.665 186.553L443.236 182.892C443.683 182.642 443.683 181.999 443.236 181.749L432.218 175.427C432.004 175.302 431.879 175.088 431.879 174.856V170.891C431.879 170.659 432.004 170.445 432.218 170.32L435.647 168.338C435.843 168.213 436.111 168.213 436.307 168.338L439.736 170.32C439.932 170.445 440.075 170.659 440.075 170.891V173.999C440.075 174.499 440.629 174.82 441.075 174.57L447.629 170.766ZM433.825 171.391C433.754 171.445 433.7 171.516 433.7 171.606V174.034C433.7 174.124 433.754 174.213 433.825 174.249L435.932 175.463C436.004 175.516 436.111 175.516 436.182 175.463L438.29 174.249C438.361 174.195 438.415 174.124 438.415 174.034V171.606C438.415 171.516 438.361 171.427 438.29 171.391L436.182 170.177C436.111 170.123 436.004 170.123 435.932 170.177L433.825 171.391ZM388.431 179.159V166.588C388.431 166.123 388.145 165.677 387.734 165.445L376.823 159.159C376.448 158.944 375.93 158.909 375.502 159.159L364.59 165.445C364.18 165.677 363.894 166.105 363.894 166.588V179.159C363.894 179.659 364.233 180.088 364.608 180.302L375.537 186.588C375.966 186.838 376.466 186.82 376.859 186.588L387.752 180.302C388.073 180.124 388.306 179.82 388.395 179.463C388.413 179.374 388.431 179.267 388.431 179.159ZM375.162 156.855L375.019 156.944H375.216L375.162 156.855ZM388.77 180.106L388.698 179.981V180.142L388.77 180.106Z" fill="#FFFFFA"/>
<path d="M654.801 52.5153H685.775V58.2116H673.488V88.1803H667.344V58.2116H654.801V52.5153ZM603.859 52.5153V58.2116H579.031V67.375H598.998V73.0723H579.031V82.483H603.859V88.1803H572.887V58.2116H572.885V52.5153H603.859ZM619.327 52.5295H611.285L640.083 88.1945H648.147L633.745 70.3741L648.124 52.5569L640.083 52.5689L629.721 65.3931L619.325 52.5306L619.327 52.5295ZM627.577 78.0062L623.549 73.0177L611.263 88.2219H619.327L627.577 78.0062Z" fill="#FFFFFA"/>
<path fill-rule="evenodd" clip-rule="evenodd" d="M573.102 88.1803L544.266 52.5H536.586V88.165H542.73V60.1234L565.384 88.1803H573.102Z" fill="#FFFFFA"/>
<path d="M687.156 87.9616C686.942 87.9651 686.73 87.9258 686.532 87.8459C686.334 87.7661 686.154 87.6473 686.003 87.4967C685.848 87.352 685.726 87.1762 685.644 86.9809C685.562 86.7855 685.523 86.5751 685.529 86.3636C685.524 85.9305 685.683 85.5586 686.003 85.248C686.154 85.0972 686.334 84.9783 686.532 84.8983C686.73 84.8182 686.942 84.7787 687.156 84.782C687.589 84.782 687.968 84.9373 688.289 85.248C688.613 85.5586 688.776 85.9305 688.779 86.3636C688.776 86.6589 688.7 86.928 688.551 87.1697C688.396 87.4147 688.201 87.6072 687.956 87.745C687.714 87.8883 687.448 87.9616 687.156 87.9616ZM697.642 72.9378H700.364V83.3886C700.361 84.3489 700.152 85.1714 699.744 85.8605C699.339 86.5445 698.743 87.0969 698.03 87.4508C697.301 87.8194 696.448 88.0075 695.477 88.0075C694.59 88.0075 693.796 87.8478 693.089 87.5372C692.405 87.2458 691.82 86.7633 691.406 86.1481C690.99 85.5345 690.786 84.77 690.786 83.8545H693.512C693.517 84.2548 693.609 84.6027 693.784 84.8936C693.958 85.1823 694.2 85.4033 694.508 85.5586C694.82 85.7139 695.178 85.7916 695.582 85.7916C696.018 85.7916 696.394 85.7019 696.697 85.5181C697.001 85.3377 697.235 85.0686 697.396 84.7088C697.555 84.3533 697.638 83.9114 697.642 83.3886V72.9378ZM711.566 77.0252C711.5 76.3908 711.208 75.8964 710.701 75.5453C710.189 75.1898 709.527 75.0137 708.716 75.0137C708.145 75.0137 707.654 75.0991 707.246 75.2675C706.837 75.4392 706.521 75.6678 706.305 75.9577C706.091 76.2449 705.974 76.5929 705.972 76.9508C705.972 77.2614 706.047 77.5316 706.193 77.7569C706.338 77.9855 706.533 78.1769 706.788 78.3322C707.037 78.4919 707.316 78.6231 707.62 78.7292C707.929 78.8353 708.237 78.9261 708.544 78.9983L709.964 79.3461C710.535 79.4773 711.088 79.6523 711.617 79.8777C712.146 80.0986 712.625 80.3808 713.045 80.7198C713.465 81.0589 713.798 81.468 714.044 81.9448C714.289 82.4239 714.414 82.9839 714.414 83.6292C714.414 84.4998 714.189 85.2644 713.735 85.9261C713.282 86.5845 712.628 87.0997 711.771 87.4716C710.918 87.8391 709.885 88.0272 708.67 88.0272C707.496 88.0272 706.472 87.8478 705.61 87.488C704.744 87.1325 704.069 86.6097 703.583 85.9228C703.095 85.2359 702.833 84.3981 702.796 83.4127H705.493C705.531 83.9278 705.697 84.3577 705.98 84.7044C706.268 85.0478 706.642 85.3016 707.1 85.4733C707.562 85.6406 708.078 85.7259 708.649 85.7259C709.244 85.7259 709.768 85.6363 710.222 85.4613C710.672 85.2852 711.025 85.0402 711.28 84.7208C711.538 84.4058 711.666 84.0339 711.671 83.6095C711.666 83.2213 711.55 82.8986 711.325 82.6448C711.097 82.3911 710.78 82.1789 710.376 82.0072C709.914 81.8173 709.438 81.663 708.953 81.5456L707.229 81.1125C705.985 80.7975 704.998 80.3195 704.278 79.6775C703.553 79.0355 703.195 78.1856 703.195 77.1181C703.195 76.2431 703.437 75.4753 703.924 74.818C704.407 74.1595 705.069 73.6487 705.906 73.2845C706.746 72.917 707.696 72.7377 708.753 72.7377C709.826 72.7377 710.767 72.917 711.58 73.2845C712.391 73.6487 713.027 74.1552 713.49 74.8016C713.952 75.4469 714.193 76.1873 714.206 77.0252H711.566Z" fill="#FFFFFA"/>
<path d="M946.655 52.5C934.76 52.5 926.183 60.2539 926.183 71.8846C926.183 83.5154 935.837 91.2692 947.733 91.2692C954.919 91.2692 961.255 88.4262 965.177 83.6339L956.934 78.8738C954.758 81.2538 951.45 82.6431 947.733 82.6431C942.572 82.6431 938.186 79.9508 936.559 75.6431H966.75C966.987 74.4369 967.127 73.1877 967.127 71.8738C967.127 60.2538 958.55 52.5 946.655 52.5ZM936.462 68.1154C937.809 63.8185 941.494 61.1154 946.644 61.1154C951.805 61.1154 955.49 63.8185 956.826 68.1154H936.462ZM1062.68 52.5C1050.78 52.5 1042.2 60.2539 1042.2 71.8846C1042.2 83.5154 1051.86 91.2692 1063.75 91.2692C1070.94 91.2692 1077.28 88.4262 1081.2 83.6339L1072.96 78.8738C1070.78 81.2538 1067.47 82.6431 1063.75 82.6431C1058.59 82.6431 1054.21 79.9508 1052.58 75.6431H1082.77C1083.01 74.4369 1083.15 73.1877 1083.15 71.8738C1083.15 60.2538 1074.57 52.5 1062.68 52.5ZM1052.49 68.1154C1053.84 63.8185 1057.53 61.1154 1062.68 61.1154C1067.84 61.1154 1071.52 63.8185 1072.86 68.1154H1052.49ZM1010.44 71.8846C1010.44 78.3462 1014.66 82.6538 1021.22 82.6538C1025.65 82.6538 1028.98 80.64 1030.7 77.3554L1038.97 82.1262C1035.55 87.8338 1029.12 91.2692 1021.22 91.2692C1009.31 91.2692 1000.74 83.5154 1000.74 71.8846C1000.74 60.2539 1009.32 52.5 1021.22 52.5C1029.12 52.5 1035.54 55.9354 1038.97 61.6431L1030.7 66.4138C1028.98 63.1292 1025.65 61.1154 1021.22 61.1154C1014.68 61.1154 1010.44 65.4231 1010.44 71.8846ZM1099.31 40.6538V90.1923H1089.61V40.6538H1099.31ZM834.502 35.2692L874.314 104.192H794.69L834.502 35.2692ZM934.038 40.6538L904.182 92.3462L874.325 40.6538H885.52L904.182 72.9615L922.843 40.6538H934.038ZM997.512 53.5769V64.0123C996.434 63.7 995.292 63.4846 994.064 63.4846C987.804 63.4846 983.289 67.7923 983.289 74.2538V90.1923H973.592V53.5769H983.289V63.4846C983.289 58.0138 989.657 53.5769 997.512 53.5769Z" fill="#FFFFFA"/>
<path fill-rule="evenodd" clip-rule="evenodd" d="M875.524 292.518C874.835 291.431 874.825 290.047 875.497 288.95L900.82 247.643C902.229 245.345 905.63 245.546 906.758 247.993L929.892 298.177C930.751 300.039 929.763 302.229 927.799 302.819L891.812 313.615C890.364 314.049 888.804 313.467 887.995 312.19L875.524 292.518ZM903.742 259.721C903.986 258.505 905.651 258.33 906.143 259.468L922.101 296.393C922.401 297.088 922.027 297.89 921.301 298.106L896.437 305.529C895.523 305.801 894.648 305.003 894.836 304.068L903.742 259.721ZM996.237 297.843H1003.31V271.93H996.237V297.843ZM995.936 265.232C995.936 262.931 997.219 261.779 999.784 261.779C1002.35 261.779 1003.63 262.931 1003.63 265.232C1003.63 266.329 1003.31 267.183 1002.67 267.794C1002.03 268.404 1001.07 268.709 999.784 268.709C997.219 268.709 995.936 267.55 995.936 265.232ZM1092.93 285.837L1090.19 285.93C1088.14 285.992 1086.61 286.364 1085.6 287.043C1084.6 287.723 1084.1 288.758 1084.1 290.149C1084.1 292.142 1085.24 293.139 1087.53 293.139C1089.16 293.139 1090.47 292.668 1091.45 291.725C1092.44 290.783 1092.93 289.531 1092.93 287.97V285.837ZM1095.01 297.844L1093.65 294.32H1093.46C1092.27 295.82 1091.05 296.859 1089.79 297.439C1088.53 298.018 1086.89 298.307 1084.86 298.307C1082.37 298.307 1080.42 297.597 1078.99 296.175C1077.56 294.754 1076.84 292.73 1076.84 290.102C1076.84 287.353 1077.8 285.324 1079.73 284.018C1081.65 282.713 1084.55 281.99 1088.43 281.851L1092.93 281.712V280.576C1092.93 277.95 1091.58 276.636 1088.89 276.636C1086.82 276.636 1084.39 277.261 1081.59 278.513L1079.25 273.739C1082.23 272.179 1085.54 271.397 1089.17 271.397C1092.65 271.397 1095.31 272.155 1097.17 273.669C1099.02 275.184 1099.95 277.486 1099.95 280.576V297.844H1095.01ZM1056.2 297.844H1049.13V282.708C1049.13 280.839 1048.82 279.438 1048.19 278.502C1047.57 277.567 1046.58 277.099 1045.24 277.099C1043.43 277.099 1042.12 277.764 1041.3 279.093C1040.48 280.422 1040.07 282.609 1040.07 285.652V297.844H1033V271.931H1038.4L1039.35 275.246H1039.74C1040.44 274.056 1041.44 273.125 1042.76 272.453C1044.07 271.78 1045.58 271.444 1047.28 271.444C1051.16 271.444 1053.78 272.712 1055.16 275.246H1055.78C1056.48 274.04 1057.5 273.105 1058.85 272.441C1060.21 271.776 1061.73 271.444 1063.43 271.444C1066.37 271.444 1068.59 272.198 1070.1 273.704C1071.6 275.211 1072.36 277.626 1072.36 280.947V297.844H1065.26V282.708C1065.26 280.839 1064.95 279.438 1064.32 278.502C1063.7 277.567 1062.71 277.099 1061.37 277.099C1059.64 277.099 1058.34 277.718 1057.49 278.954C1056.63 280.19 1056.2 282.152 1056.2 284.841V297.844ZM1025.42 296.221C1027.27 294.831 1028.2 292.807 1028.2 290.148C1028.2 288.867 1027.97 287.761 1027.52 286.834C1027.07 285.907 1026.38 285.088 1025.44 284.377C1024.5 283.667 1023.01 282.902 1020.99 282.083C1018.72 281.171 1017.24 280.483 1016.57 280.02C1015.9 279.556 1015.56 279.008 1015.56 278.374C1015.56 277.246 1016.61 276.682 1018.69 276.682C1019.87 276.682 1021.02 276.861 1022.15 277.215C1023.27 277.571 1024.49 278.026 1025.79 278.583L1027.92 273.484C1024.97 272.125 1021.93 271.444 1018.81 271.444C1015.53 271.444 1013 272.074 1011.22 273.333C1009.43 274.593 1008.54 276.374 1008.54 278.675C1008.54 280.02 1008.75 281.153 1009.18 282.072C1009.6 282.991 1010.28 283.806 1011.22 284.516C1012.15 285.228 1013.62 286 1015.61 286.834C1017 287.422 1018.11 287.936 1018.95 288.376C1019.78 288.816 1020.37 289.211 1020.71 289.558C1021.05 289.905 1021.22 290.357 1021.22 290.914C1021.22 292.397 1019.94 293.138 1017.37 293.138C1016.12 293.138 1014.67 292.93 1013.03 292.513C1011.38 292.096 1009.9 291.578 1008.59 290.96V296.801C1009.75 297.295 1010.99 297.67 1012.32 297.925C1013.65 298.18 1015.25 298.307 1017.14 298.307C1020.82 298.307 1023.58 297.612 1025.42 296.221ZM992.487 271.652C991.853 271.513 991.058 271.444 990.099 271.444C988.492 271.444 987.005 271.888 985.638 272.777C984.27 273.666 983.185 274.836 982.381 276.288H982.034L980.99 271.931H975.636V297.844H982.706V284.656C982.706 282.57 983.335 280.947 984.594 279.788C985.854 278.629 987.611 278.049 989.868 278.049C990.687 278.049 991.382 278.127 991.954 278.281L992.487 271.652ZM954.829 279.904H957.193C959.403 279.904 961.056 279.467 962.153 278.594C963.251 277.721 963.799 276.45 963.799 274.781C963.799 273.098 963.339 271.853 962.42 271.05C961.5 270.246 960.06 269.844 958.097 269.844H954.829V279.904ZM971.053 274.526C971.053 278.173 969.914 280.962 967.634 282.893C965.356 284.825 962.115 285.79 957.912 285.79H954.829V297.843H947.644V263.957H958.468C962.579 263.957 965.704 264.842 967.844 266.612C969.984 268.381 971.053 271.02 971.053 274.526Z" fill="#FFFFFA"/>
<path d="M608.945 263.725C617.942 263.725 623.128 270.605 623.128 279.738C623.128 289.058 617.318 295.939 608.634 295.939C604.477 295.939 601.396 294.323 599.862 292.32L599.761 292.185V307.073H591.452V264.412H599.511V268.166C600.887 265.788 604.322 263.725 608.945 263.725ZM535.974 263.474C542.058 263.474 545.331 266.168 546.886 268.924L547.027 269.183L547.157 269.441C547.2 269.528 547.24 269.613 547.279 269.699L547.391 269.956L547.493 270.211L547.586 270.464L547.63 270.59L547.71 270.838L547.782 271.084L547.845 271.326L547.874 271.446L547.925 271.681L547.968 271.912L548.003 272.137L548.032 272.357L541.097 273.92C540.846 272.107 539.535 269.792 536.036 269.792C533.849 269.792 532.1 271.106 532.1 272.857C532.1 274.312 533.155 275.238 534.755 275.579L534.911 275.61L539.285 276.548C545.345 277.799 548.407 281.489 548.407 285.993C548.407 290.997 544.532 296.126 536.473 296.126C530.405 296.126 526.946 293.54 525.18 290.772L525.017 290.509C524.965 290.421 524.914 290.332 524.864 290.243L524.721 289.979C524.652 289.846 524.586 289.714 524.525 289.582L524.405 289.319C524.367 289.232 524.33 289.145 524.295 289.057L524.194 288.797L524.102 288.539L524.06 288.411L523.98 288.158L523.909 287.909L523.848 287.663L523.794 287.422L523.748 287.185L523.709 286.954L523.678 286.729L523.665 286.618L530.788 285.055C530.975 287.494 532.787 289.746 536.41 289.746C539.16 289.746 540.472 288.307 540.472 286.681C540.472 285.343 539.586 284.242 537.355 283.722L537.16 283.679L533.099 282.74C527.164 281.427 524.478 277.861 524.478 273.545C524.478 268.041 529.351 263.474 535.974 263.474ZM745.006 263.474C750.996 263.474 754.26 266.085 755.844 268.795L755.99 269.054C756.131 269.312 756.256 269.571 756.368 269.827L756.475 270.083L756.573 270.338C756.62 270.464 756.663 270.59 756.703 270.714L756.779 270.962L756.814 271.084L756.878 271.326L756.906 271.446L756.957 271.681L756.979 271.798L757.019 272.025L757.036 272.137L757.064 272.357L750.13 273.92L750.096 273.709C750.063 273.526 750.02 273.346 749.968 273.167L749.898 272.948C749.359 271.374 747.962 269.793 745.068 269.793C742.881 269.793 741.133 271.106 741.133 272.857C741.133 274.312 742.187 275.238 743.786 275.579L743.942 275.61L748.316 276.548C754.377 277.799 757.438 281.489 757.438 285.993C757.438 290.997 753.565 296.126 745.505 296.126C739.533 296.126 736.09 293.622 734.298 290.904L734.129 290.64L733.971 290.376L733.823 290.111L733.685 289.846C733.619 289.716 733.556 289.583 733.496 289.45L733.381 289.188L733.276 288.926C733.259 288.883 733.243 288.84 733.226 288.797L733.134 288.539L733.051 288.284L732.976 288.033C732.964 287.992 732.953 287.95 732.942 287.909L732.88 287.663L732.826 287.422L732.78 287.185L732.741 286.954L732.71 286.729L732.698 286.618L739.82 285.055C740.008 287.494 741.82 289.746 745.443 289.746C748.192 289.746 749.504 288.307 749.504 286.681C749.504 285.343 748.618 284.242 746.387 283.722L746.193 283.679L742.132 282.74C736.195 281.427 733.511 277.861 733.511 273.545C733.511 268.041 738.383 263.474 745.006 263.474ZM776.806 263.474C786.303 263.474 791.988 269.542 791.988 279.425L791.983 279.854L791.97 280.275L791.951 280.677L791.907 281.375L791.864 281.969L791.863 281.99H769.872C770.058 286.056 773.495 288.995 777.619 288.995C781.414 288.995 783.531 287.133 784.555 284.468L784.617 284.304L791.551 286.368C789.989 291.685 785.115 296.126 777.556 296.126C769.121 296.126 761.686 290.059 761.686 279.676C761.686 269.854 768.934 263.474 776.806 263.474ZM641.641 263.474C650.9 263.474 654.634 268.442 654.984 274.249L655.001 274.616C655.006 274.739 655.008 274.862 655.01 274.986L655.011 275.172L655.012 290.535L655.021 291.001L655.038 291.485L655.062 291.978L655.076 292.226L655.109 292.717L655.148 293.199L655.19 293.663L655.236 294.101L655.284 294.506L655.333 294.871L655.36 295.037L655.385 295.188H647.763C647.619 294.567 647.512 293.432 647.47 292.402L647.456 291.936C647.452 291.784 647.451 291.638 647.451 291.498C645.889 293.937 642.952 296.064 638.392 296.064C631.831 296.064 627.834 291.623 627.834 286.806C627.834 281.38 631.779 278.324 636.798 277.519L637.018 277.486L644.577 276.36C646.327 276.11 646.888 275.234 646.888 274.171C646.888 271.981 645.202 270.167 641.702 270.167C638.147 270.167 636.155 272.397 635.846 275.023L635.83 275.172L628.458 273.608C628.957 268.791 633.393 263.474 641.641 263.474ZM713.575 263.474C722.834 263.474 726.568 268.442 726.919 274.249L726.936 274.616C726.941 274.739 726.943 274.862 726.945 274.986L726.946 275.172L726.948 290.535L726.956 291.001L726.973 291.485L726.985 291.731L727.011 292.226L727.028 292.472L727.063 292.96L727.104 293.434L727.148 293.885L727.171 294.101L727.219 294.506C727.244 294.7 727.269 294.878 727.295 295.037L727.32 295.188H719.699C719.599 294.757 719.517 294.082 719.462 293.364L719.429 292.882C719.425 292.802 719.42 292.721 719.416 292.641L719.397 292.166C719.389 291.932 719.385 291.707 719.385 291.498C717.824 293.937 714.887 296.064 710.327 296.064C703.766 296.064 699.768 291.623 699.768 286.806C699.768 281.38 703.714 278.324 708.734 277.519L708.953 277.486L716.512 276.36C718.261 276.11 718.824 275.234 718.824 274.171C718.824 271.981 717.137 270.167 713.638 270.167C710.081 270.167 708.09 272.397 707.78 275.023L707.765 275.172L700.393 273.608C700.893 268.791 705.329 263.474 713.575 263.474ZM562.84 264.412V282.178C562.84 285.617 564.59 288.37 568.464 288.37C572.087 288.37 574.2 285.953 574.272 282.486L574.274 282.302V264.412H582.583V289.622C582.583 289.797 582.585 289.973 582.587 290.146L582.596 290.659L582.609 291.16L582.627 291.648L582.66 292.348L582.686 292.791L582.729 293.415L582.776 293.985L582.837 294.649L582.883 295.066L582.897 295.189H574.961L574.941 295.083L574.902 294.835C574.888 294.739 574.876 294.642 574.864 294.545L574.829 294.216L574.813 294.041L574.782 293.671L574.756 293.283L574.735 292.882L574.727 292.679L574.715 292.274C574.713 292.139 574.711 292.005 574.711 291.873C573.025 294.752 569.462 296.002 566.214 296.002C558.859 296.002 554.622 290.677 554.532 284.083L554.531 283.867V264.413L562.84 264.412ZM671.572 249.9V267.791C672.945 265.601 676.319 263.599 680.88 263.599C689.877 263.599 695.064 270.543 695.064 279.676C695.064 288.996 689.316 295.939 680.568 295.939C676.407 295.939 673.206 294.14 671.55 291.598L671.447 291.435V295.188H663.387V249.9H671.572ZM646.888 282.74V281.364L639.954 282.428C637.829 282.74 636.142 283.929 636.142 286.306C636.142 288.12 637.455 289.872 640.14 289.872C643.589 289.872 646.795 288.231 646.887 282.974L646.888 282.74ZM718.824 282.74V281.364L711.889 282.428C709.764 282.74 708.077 283.929 708.077 286.306C708.077 288.12 709.39 289.872 712.077 289.872C715.524 289.872 718.729 288.231 718.822 282.974L718.824 282.74ZM607.321 271.167C603.073 271.167 599.637 274.358 599.637 279.8C599.637 285.242 603.073 288.494 607.321 288.494C611.569 288.494 614.943 285.304 614.943 279.8C614.943 274.358 611.569 271.167 607.321 271.167ZM679.131 271.043C674.945 271.043 671.447 274.107 671.447 279.737C671.447 285.304 674.945 288.494 679.131 288.494C683.38 288.494 686.753 285.367 686.753 279.737C686.753 274.107 683.38 271.043 679.131 271.043ZM776.931 270.229C772.693 270.229 770.327 273.373 770.07 276.154L770.058 276.297H783.804C783.679 273.232 781.679 270.229 776.931 270.229Z" fill="#FFFFFA"/>
<path d="M468.826 313.837C467.038 316.089 463.412 314.855 463.369 311.979L462.739 269.922H491.018C496.141 269.922 498.997 275.838 495.812 279.85L468.826 313.837Z" fill="#FFFFFA"/>
<path d="M468.826 313.837C467.038 316.089 463.412 314.855 463.369 311.979L462.739 269.922H491.018C496.141 269.922 498.997 275.838 495.812 279.85L468.826 313.837Z" fill="#FFFFFA" fill-opacity="0.2"/>
<path d="M457.325 246.162C459.113 243.911 462.739 245.145 462.782 248.02L463.059 290.077H435.133C430.01 290.077 427.154 284.162 430.339 280.15L457.325 246.162Z" fill="#FFFFFA"/>
<path fill-rule="evenodd" clip-rule="evenodd" d="M329.028 274.948C328.807 274.992 328.585 275.48 328.585 275.746C328.541 277.519 328.497 282.219 328.497 285.41C328.497 285.499 328.629 285.676 328.763 285.676C329.427 285.721 331.023 285.765 332.398 285.765C334.304 285.765 335.413 285.499 336.034 285.234C337.629 284.435 338.383 282.706 338.383 280.799C338.383 276.5 335.368 274.859 330.89 274.859C330.58 274.815 329.694 274.815 329.028 274.948ZM340.467 294.765C340.467 290.376 337.231 287.937 331.378 287.937C331.112 287.937 329.25 287.893 328.807 287.981C328.674 288.026 328.497 288.115 328.497 288.248C328.497 291.395 328.452 296.405 328.585 298.355C328.674 299.198 329.295 300.395 330.049 300.749C330.846 301.193 332.664 301.281 333.906 301.281C337.408 301.281 340.467 299.331 340.467 294.765ZM319.985 272.51C320.428 272.51 321.757 272.643 325.171 272.643C328.408 272.643 330.979 272.555 334.127 272.555C337.984 272.555 343.304 273.928 343.304 279.692C343.304 282.529 341.309 284.79 338.694 285.898C338.561 285.943 338.561 286.031 338.694 286.075C342.417 287.007 345.699 289.312 345.699 293.656C345.699 297.912 343.039 300.616 339.181 302.301C336.831 303.32 333.906 303.675 330.935 303.675C328.674 303.675 322.6 303.409 319.231 303.498C318.876 303.365 319.541 301.769 319.851 301.503C320.649 301.458 321.27 301.414 322.112 301.148C323.31 300.838 323.442 300.483 323.62 298.666C323.708 297.114 323.708 291.617 323.708 287.716C323.708 282.352 323.753 278.716 323.708 276.943C323.664 275.569 323.177 275.126 322.201 274.859C321.447 274.727 320.206 274.549 319.186 274.417C318.964 274.195 319.718 272.687 319.985 272.51ZM294.402 300.084C295.467 300.926 297.551 301.281 299.413 301.281C301.807 301.281 304.201 300.838 306.507 298.754C308.856 296.627 310.496 293.346 310.496 288.115C310.496 283.105 308.59 279.026 304.689 276.633C302.472 275.258 299.634 274.683 296.354 274.683C295.378 274.683 294.447 274.727 293.871 274.992C293.738 275.081 293.428 275.48 293.428 275.702C293.339 276.588 293.339 283.415 293.339 287.405C293.339 291.528 293.339 297.291 293.428 297.956C293.428 298.622 293.737 299.641 294.402 300.084ZM284.338 272.51C285.181 272.51 288.417 272.643 289.969 272.643C292.763 272.643 294.758 272.51 300.033 272.51C304.467 272.51 308.191 273.707 310.851 275.968C314.087 278.761 315.773 282.618 315.773 287.317C315.773 294.011 312.713 297.868 309.654 300.084C306.595 302.345 302.605 303.675 296.93 303.675C293.915 303.675 288.728 303.586 284.427 303.542H284.383C284.162 303.143 284.738 301.591 285.092 301.547C286.245 301.414 286.556 301.369 287.132 301.148C288.063 300.793 288.24 300.306 288.374 298.666C288.506 295.607 288.462 291.927 288.462 287.76C288.462 284.79 288.506 278.982 288.417 277.12C288.285 275.569 287.62 275.17 286.289 274.904C285.625 274.771 284.738 274.593 283.497 274.461C283.319 274.15 284.117 272.775 284.338 272.51Z" fill="#FFFFFA"/>
<path fill-rule="evenodd" clip-rule="evenodd" d="M230.693 301.813C229.585 301.68 228.787 301.504 227.812 301.06C227.679 300.971 227.457 300.528 227.457 300.351C227.368 298.799 227.368 294.366 227.368 291.396C227.368 289.002 226.969 286.918 225.95 285.456C224.752 283.77 223.024 282.796 220.807 282.796C218.856 282.796 216.24 284.125 214.067 285.987C214.023 286.032 213.669 286.342 213.713 285.854C213.713 285.367 213.802 284.392 213.846 283.726C213.891 283.105 213.536 282.796 213.536 282.796C212.117 283.505 208.127 284.436 206.664 284.568C205.6 284.791 205.334 285.81 206.443 286.165H206.487C207.683 286.519 208.481 286.918 209.102 287.318C209.545 287.672 209.501 288.16 209.501 288.559C209.545 291.883 209.545 296.982 209.413 299.775C209.368 300.883 209.058 301.282 208.26 301.459L208.348 301.415C207.728 301.548 207.24 301.68 206.486 301.769C206.22 302.035 206.22 303.454 206.486 303.764C206.974 303.764 209.545 303.631 211.674 303.631C214.6 303.631 216.107 303.764 216.861 303.764C217.171 303.41 217.26 302.08 217.083 301.769C216.24 301.725 215.619 301.637 215.043 301.459C214.245 301.281 214.023 300.883 213.979 299.952C213.891 297.602 213.891 292.637 213.891 289.268C213.891 288.337 214.156 287.894 214.422 287.627C215.442 286.741 217.083 286.12 218.546 286.12C219.964 286.12 220.895 286.564 221.605 287.14C222.58 287.938 222.89 289.091 223.023 289.933C223.245 291.839 223.156 295.607 223.156 298.888C223.156 300.661 223.023 301.104 222.359 301.326C222.048 301.459 221.25 301.637 220.319 301.725C220.009 302.035 220.097 303.41 220.319 303.72C221.604 303.72 223.112 303.587 225.329 303.587C228.077 303.587 229.851 303.72 230.561 303.72C230.782 303.454 230.871 302.168 230.693 301.813ZM242.974 284.88C240.625 284.88 239.161 286.697 239.161 289.534C239.161 292.416 240.447 295.74 244.082 295.74C244.703 295.74 245.856 295.474 246.388 294.854C247.23 294.056 247.807 292.46 247.807 290.775C247.807 287.096 245.989 284.88 242.974 284.88ZM242.664 304.473C241.777 304.473 241.156 304.74 240.757 304.962C238.895 306.158 238.053 307.311 238.053 308.686C238.053 309.971 238.541 310.99 239.605 311.877C240.89 312.985 242.664 313.517 244.925 313.517C249.447 313.517 251.442 311.079 251.442 308.686C251.442 307 250.6 305.892 248.871 305.272C247.63 304.74 245.369 304.473 242.664 304.473ZM242.974 316C240.27 316 238.319 315.424 236.634 314.138C234.994 312.897 234.285 311.035 234.285 309.749C234.285 309.395 234.373 308.419 235.171 307.533C235.659 307 236.723 305.981 239.25 304.252C239.339 304.208 239.383 304.164 239.383 304.074C239.383 303.986 239.294 303.897 239.206 303.853C237.122 303.055 236.501 301.769 236.324 301.06V300.971C236.28 300.705 236.191 300.44 236.59 300.173C236.901 299.952 237.344 299.686 237.831 299.376C238.585 298.932 239.383 298.444 239.871 298.045C239.959 297.957 239.959 297.868 239.959 297.78C239.959 297.691 239.871 297.602 239.782 297.558C236.679 296.538 235.127 294.233 235.127 290.775C235.127 288.514 236.147 286.475 237.964 285.189C239.206 284.214 242.309 283.017 244.349 283.017H244.482C246.565 283.061 247.718 283.505 249.358 284.081C250.245 284.392 251.088 284.524 252.241 284.524C253.969 284.524 254.723 283.992 255.343 283.372C255.388 283.461 255.477 283.682 255.521 284.258C255.565 284.835 255.388 285.677 254.945 286.298C254.59 286.785 253.792 287.14 252.994 287.14H252.772C251.974 287.051 251.619 286.963 251.619 286.963L251.442 287.051C251.398 287.14 251.442 287.229 251.486 287.362L251.531 287.451C251.62 287.849 251.797 289.046 251.797 289.357C251.797 292.992 250.334 294.587 248.782 295.785C247.274 296.893 245.546 297.602 243.595 297.78C243.551 297.78 243.374 297.78 242.974 297.824C242.753 297.824 242.442 297.868 242.398 297.868H242.353C241.999 297.957 241.112 298.4 241.112 299.154C241.112 299.818 241.511 300.617 243.418 300.75C243.816 300.794 244.215 300.794 244.659 300.839C247.186 301.016 250.334 301.237 251.797 301.725C253.836 302.478 255.122 304.296 255.122 306.469C255.122 309.75 252.773 312.808 248.871 314.714C246.965 315.557 245.058 316 242.974 316ZM268.245 285.101C267.314 285.101 266.472 285.322 265.851 285.765C264.122 286.83 263.235 288.958 263.235 292.061C263.235 297.868 266.161 301.947 270.329 301.947C271.57 301.947 272.546 301.592 273.388 300.883C274.674 299.818 275.339 297.691 275.339 294.72C275.339 288.958 272.456 285.101 268.245 285.101ZM269.043 304.075C261.506 304.075 258.802 298.533 258.802 293.347C258.802 289.711 260.265 286.918 263.191 284.923C265.275 283.638 267.758 282.929 269.974 282.929C275.738 282.929 279.772 287.051 279.772 292.992C279.772 297.026 278.176 300.218 275.117 302.168C273.654 303.144 271.127 304.075 269.043 304.075ZM190.038 285.101C189.107 285.101 188.265 285.322 187.644 285.765C185.915 286.83 185.028 288.958 185.028 292.061C185.028 297.868 187.954 301.947 192.122 301.947C193.363 301.947 194.339 301.592 195.181 300.883C196.466 299.818 197.132 297.691 197.132 294.72C197.132 288.958 194.294 285.101 190.038 285.101ZM190.836 304.075C183.299 304.075 180.595 298.533 180.595 293.347C180.595 289.711 182.058 286.918 184.984 284.923C187.068 283.638 189.551 282.929 191.767 282.929C197.531 282.929 201.565 287.051 201.565 292.992C201.565 297.026 199.969 300.218 196.91 302.168C195.491 303.144 192.964 304.075 190.836 304.075ZM140.161 303.631C140.072 303.499 139.983 303.1 140.028 302.612C140.028 302.257 140.117 302.035 140.161 301.947C141.092 301.813 141.58 301.68 142.112 301.548C142.999 301.326 143.353 300.839 143.397 299.73C143.531 297.071 143.531 292.016 143.486 288.514V288.425C143.486 288.027 143.486 287.539 142.999 287.184C142.289 286.741 141.447 286.342 140.338 286.031C139.94 285.899 139.673 285.677 139.718 285.411C139.718 285.145 139.984 284.835 140.56 284.746C142.023 284.613 145.836 283.682 147.343 283.017C147.432 283.106 147.565 283.372 147.565 283.727L147.521 284.214C147.476 284.702 147.432 285.278 147.432 285.854C147.432 286.032 147.61 286.165 147.787 286.165C147.875 286.165 147.964 286.12 148.053 286.076C150.89 283.859 153.461 283.061 154.791 283.061C156.964 283.061 158.649 284.081 159.935 286.209C160.023 286.342 160.112 286.387 160.245 286.387C160.334 286.387 160.466 286.342 160.511 286.254C163.127 284.258 165.743 283.061 167.471 283.061C171.594 283.061 174.033 286.12 174.033 291.307C174.033 292.77 174.033 294.676 173.989 296.406C173.989 297.957 173.945 299.375 173.945 300.395C173.945 300.616 174.255 301.326 174.742 301.459C175.363 301.769 176.206 301.902 177.314 302.08H177.358C177.447 302.39 177.27 303.542 177.092 303.764C176.826 303.764 176.427 303.764 175.984 303.72C174.862 303.662 173.738 303.632 172.614 303.631C169.866 303.631 168.447 303.676 167.072 303.764C166.984 303.41 166.939 302.346 167.072 302.08C167.871 301.947 168.269 301.813 168.757 301.681C169.644 301.415 169.866 301.016 169.91 299.863C169.91 299.021 170.087 291.839 169.821 290.11C169.555 288.337 168.225 286.254 165.299 286.254C164.19 286.254 162.462 286.697 160.777 287.982C160.689 288.071 160.599 288.292 160.599 288.425V288.47C160.777 289.401 160.777 290.465 160.777 292.105V294.987C160.777 296.982 160.732 298.844 160.777 300.262C160.777 301.237 161.353 301.459 161.841 301.637C162.107 301.68 162.284 301.725 162.506 301.769C162.905 301.858 163.304 301.947 163.925 302.08C164.014 302.257 164.014 302.833 163.881 303.321C163.836 303.587 163.747 303.72 163.703 303.764C162.196 303.72 160.644 303.676 158.383 303.676C157.718 303.676 156.565 303.72 155.59 303.72C154.791 303.72 154.038 303.764 153.595 303.764C153.55 303.676 153.461 303.366 153.461 302.878C153.461 302.479 153.55 302.168 153.639 302.08C153.861 302.035 154.038 301.991 154.26 301.991C154.791 301.902 155.235 301.813 155.678 301.725C156.432 301.504 156.698 301.104 156.742 300.129C156.875 297.913 157.008 291.573 156.698 289.977C156.166 287.406 154.703 286.12 152.353 286.12C150.979 286.12 149.249 286.785 147.831 287.85C147.609 288.027 147.432 288.47 147.432 288.869V291.485C147.432 294.676 147.432 298.666 147.476 300.395C147.521 300.927 147.698 301.548 148.718 301.769C148.94 301.813 149.294 301.902 149.738 301.947L150.535 302.08C150.624 302.346 150.58 303.41 150.403 303.764C149.959 303.764 149.427 303.72 148.806 303.72C147.654 303.663 146.501 303.633 145.348 303.631C143.797 303.631 142.688 303.675 141.801 303.72C141.181 303.631 140.693 303.631 140.161 303.631Z" fill="#FFFFFA"/>
<path fill-rule="evenodd" clip-rule="evenodd" d="M116.84 314.271L115.023 313.649C115.023 313.649 115.245 304.385 111.919 303.72C109.703 301.148 112.275 194.664 120.255 303.365C120.255 303.365 117.506 304.739 117.018 307.089C116.486 309.394 116.84 314.271 116.84 314.271Z" fill="#FFFFFA"/>
<path fill-rule="evenodd" clip-rule="evenodd" d="M116.84 314.271L115.023 313.649C115.023 313.649 115.245 304.385 111.919 303.72C109.703 301.148 112.275 194.664 120.255 303.365C120.255 303.365 117.506 304.739 117.018 307.089C116.486 309.394 116.84 314.271 116.84 314.271Z" fill="#FFFFFA"/>
<path fill-rule="evenodd" clip-rule="evenodd" d="M117.816 305.316C117.816 305.316 133.733 294.853 130.008 273.086C126.418 257.26 117.949 252.074 117.018 250.079C115.999 248.66 115.023 246.178 115.023 246.178L115.688 290.198C115.688 290.243 114.313 303.675 117.816 305.316Z" fill="#FFFFFA"/>
<path fill-rule="evenodd" clip-rule="evenodd" d="M117.816 305.316C117.816 305.316 133.733 294.853 130.008 273.086C126.418 257.26 117.949 252.074 117.018 250.079C115.999 248.66 115.023 246.178 115.023 246.178L115.688 290.198C115.688 290.243 114.313 303.675 117.816 305.316Z" fill="#FFFFFA"/>
<path fill-rule="evenodd" clip-rule="evenodd" d="M114.093 305.892C114.093 305.892 99.1511 295.695 100.038 277.742C100.88 259.787 111.432 250.965 113.471 249.369C114.802 247.951 114.846 247.419 114.935 246C115.866 247.995 115.689 275.835 115.821 279.115C116.22 291.75 115.112 303.498 114.093 305.892Z" fill="#FFFFFA"/>
<path fill-rule="evenodd" clip-rule="evenodd" d="M114.093 305.892C114.093 305.892 99.1511 295.695 100.038 277.742C100.88 259.787 111.432 250.965 113.471 249.369C114.802 247.951 114.846 247.419 114.935 246C115.866 247.995 115.689 275.835 115.821 279.115C116.22 291.75 115.112 303.498 114.093 305.892Z" fill="#FFFFFA"/>
<path d="M303.316 44.2498C296.914 34.953 284.381 32.2656 274.73 38.121L258.402 48.5007C256.195 49.8832 254.304 51.7145 252.852 53.8757C251.399 56.0369 250.417 58.4795 249.97 61.0449C249.177 65.3556 249.865 69.8078 251.921 73.6788C250.516 75.7904 249.572 78.1742 249.15 80.675C248.688 83.2828 248.75 85.9563 249.331 88.5401C249.912 91.1239 251.002 93.5662 252.536 95.725C258.949 105 271.448 107.7 281.121 101.911L297.461 91.5206C299.66 90.1324 301.543 88.2989 302.989 86.1383C304.435 83.9777 305.413 81.538 305.858 78.9764C306.642 74.679 305.951 70.2428 303.897 66.3873C308.238 59.5755 308.01 50.8123 303.316 44.2498ZM273.099 96.6257C270.535 97.2923 267.828 97.1549 265.344 96.2323C262.86 95.3096 260.719 93.6462 259.212 91.467C257.319 88.8459 256.625 85.6095 257.172 82.3966L257.492 80.8478L257.788 79.8908L258.665 80.4716C260.59 81.9306 262.745 82.9773 265.046 83.6845L265.638 83.8895L265.571 84.473C265.514 85.2824 265.753 86.1924 266.221 86.887C267.178 88.2651 268.842 88.9268 270.447 88.4931C270.799 88.3799 271.143 88.2645 271.438 88.0808L287.709 77.7033C288.53 77.1777 289.053 76.3919 289.258 75.4578C289.437 74.4882 289.2 73.4973 288.675 72.7125C287.705 71.3672 286.054 70.7629 284.449 71.1643C284.097 71.2879 283.721 71.4268 283.422 71.6084L277.269 75.5158C271.448 78.9764 263.929 77.3505 260.065 71.7795C259.134 70.4814 258.473 69.0099 258.121 67.4519C257.769 65.894 257.732 64.2813 258.014 62.7091C258.296 61.1526 258.902 59.6728 259.793 58.3656C260.684 57.0584 261.84 55.9531 263.185 55.1212L279.423 44.7415C280.448 44.1027 281.552 43.6368 282.749 43.2824C288.002 41.9152 293.537 43.977 296.636 48.4198C297.715 49.9388 298.427 51.6875 298.716 53.5282C299.005 55.3689 298.862 57.2516 298.301 59.028L298.004 59.996L297.162 59.4152C295.219 57.9935 293.051 56.9074 290.749 56.2023L290.166 56.0312L290.224 55.4482C290.281 54.5934 290.042 53.6944 289.574 52.9982C288.615 51.6201 286.953 51.0387 285.348 51.4489C284.996 51.5643 284.652 51.6775 284.357 51.8613L268.053 62.3312C267.233 62.878 266.708 63.6404 266.537 64.5974C266.366 65.5309 266.595 66.5563 267.12 67.3083C268.054 68.6886 269.75 69.2694 271.324 68.857C271.7 68.7438 272.053 68.6306 272.339 68.4469L278.559 64.4798C279.574 63.8094 280.713 63.3205 281.877 62.9995C287.165 61.6213 292.678 63.6962 295.765 68.1609C297.657 70.782 298.386 74.0163 297.86 77.1952C297.591 78.7477 296.997 80.2258 296.118 81.5332C295.238 82.8406 294.093 83.9478 292.757 84.7826L276.485 95.1398C275.427 95.7793 274.289 96.277 273.102 96.6202L273.099 96.6257Z" fill="#FFFFFA"/>
<defs>
<linearGradient id="paint0_linear_2403_74" x1="162.5" y1="-112.5" x2="1046.5" y2="421" gradientUnits="userSpaceOnUse">
<stop stop-color="#F43C8D"/>
<stop offset="1" stop-color="#4C17BD" stop-opacity="0.98"/>
</linearGradient>
</defs>
</svg>
